<svg width="160" height="112" viewBox="0 0 160 112" fill="none" xmlns="http://www.w3.org/2000/svg">
<g opacity="0.3">
<path d="M49.5215 112C79.3941 112 99.3624 87.4033 99.3624 56C99.3624 24.2873 79.3941 0 49.841 0C20.1281 0 0 24.5967 0 56C0 87.7127 19.6488 112 49.5215 112ZM49.841 90.4972C34.9845 90.4972 25.24 75.8011 25.24 56C25.24 35.8895 34.8248 21.5028 49.5215 21.5028C64.2182 21.5028 74.1225 36.3536 74.1225 56C74.1225 75.9558 64.6974 90.4972 49.841 90.4972Z" fill="white"/>
<path d="M135.719 110.144H160V1.08287H143.227L111.118 10.3646L116.229 29.8563L135.719 25.2155V110.144Z" fill="white"/>
</g>
</svg>
