<svg width="192" height="112" viewBox="0 0 192 112" fill="none" xmlns="http://www.w3.org/2000/svg">
<g opacity="0.3">
<path d="M48.245 112C77.3476 112 96.8013 87.4033 96.8013 56C96.8013 24.2873 77.3476 0 48.5563 0C19.6093 0 0 24.5967 0 56C0 87.7127 19.1424 112 48.245 112ZM48.5563 90.4972C34.0828 90.4972 24.5894 75.8011 24.5894 56C24.5894 35.8895 33.9271 21.5028 48.245 21.5028C62.5629 21.5028 72.2119 36.3536 72.2119 56C72.2119 75.9558 63.0298 90.4972 48.5563 90.4972Z" fill="white"/>
<path d="M111.384 110.144H192V89.5691H144.533L162.275 75.9558C181.573 61.105 190.911 52.1326 190.911 34.0331C190.911 13.4586 175.97 0.309388 153.404 0.309388C133.95 0.309388 123.523 8.19889 112.785 22.7403L129.593 36.1989C137.685 26.2983 143.444 21.6575 151.848 21.6575C160.407 21.6575 166.477 26.6077 166.477 35.7348C166.477 44.7072 161.185 50.5856 147.646 61.7238L111.384 91.2707V110.144Z" fill="white"/>
</g>
</svg>
