<svg width="192" height="112" viewBox="0 0 192 112" fill="none" xmlns="http://www.w3.org/2000/svg">
<g opacity="0.3">
<path d="M48.4019 112C77.5992 112 97.1161 87.4033 97.1161 56C97.1161 24.2873 77.5992 0 48.7142 0C19.673 0 0 24.5967 0 56C0 87.7127 19.2046 112 48.4019 112ZM48.7142 90.4972C34.1936 90.4972 24.6694 75.8011 24.6694 56C24.6694 35.8895 34.0375 21.5028 48.4019 21.5028C62.7664 21.5028 72.4468 36.3536 72.4468 56C72.4468 75.9558 63.2348 90.4972 48.7142 90.4972Z" fill="#75ACFE"/>
<path d="M152.654 112C177.011 112 192 96.9945 192 76.5746C192 56.1547 177.479 48.4199 162.647 45.9447L190.283 19.8011V1.85635H116.431V22.2762H159.368L133.293 48.2652L137.04 63.4254H147.033C160.461 63.4254 168.424 68.3757 168.424 77.1934C168.424 85.547 162.022 90.6519 152.966 90.6519C141.881 90.6519 134.074 86.011 126.579 77.6575L110.029 93.2818C119.397 104.265 132.981 112 152.654 112Z" fill="#75ACFE"/>
</g>
</svg>
