<svg width="128" height="128" viewBox="0 0 128 128" fill="none" xmlns="http://www.w3.org/2000/svg">
<path fill-rule="evenodd" clip-rule="evenodd" d="M64 128C99.3462 128 128 99.3462 128 64C128 28.6538 99.3462 0 64 0C28.6538 0 0 28.6538 0 64C0 99.3462 28.6538 128 64 128Z" fill="#87B645"/>
<path d="M85.5945 44.236C87.3953 42.2413 90.4191 42.1335 92.3485 43.9952C94.2779 45.8569 94.3822 48.9831 92.5814 50.9778L59.1308 88.0303C57.3837 89.9656 54.4716 90.1332 52.5274 88.4104L35.8021 73.5894C33.7983 71.8137 33.5663 68.6949 35.2838 66.6233C37.0014 64.5517 40.0181 64.3118 42.022 66.0874L55.2694 77.8265L85.5945 44.236Z" fill="white"/>
</svg>
