<svg width="128" height="128" viewBox="0 0 128 128" fill="none" xmlns="http://www.w3.org/2000/svg">
<path fill-rule="evenodd" clip-rule="evenodd" d="M64 128C99.3462 128 128 99.3462 128 64C128 28.6538 99.3462 0 64 0C28.6538 0 0 28.6538 0 64C0 99.3462 28.6538 128 64 128Z" fill="#EB5757"/>
<path d="M59.7198 76.0027C59.7724 72.9044 60.1275 70.457 60.7851 68.6605C61.4428 66.864 62.7843 64.8722 64.8098 62.6851L69.9787 57.4128C72.1883 54.9393 73.2931 52.2836 73.2931 49.4457C73.2931 46.7118 72.5698 44.5769 71.123 43.0407C69.6762 41.4785 67.5718 40.6974 64.8098 40.6974C62.1267 40.6974 59.9697 41.4004 58.3388 42.8064C56.7079 44.2123 55.8924 46.1 55.8924 48.4693H48.5928C48.6454 44.2514 50.1579 40.8537 53.1304 38.2761C56.1291 35.6724 60.0223 34.3706 64.8098 34.3706C69.7814 34.3706 73.6483 35.6985 76.4103 38.3542C79.1986 40.9838 80.5928 44.6029 80.5928 49.2113C80.5928 53.7677 78.4621 58.259 74.2007 62.6851L69.8998 66.903C67.9795 69.012 67.0194 72.0452 67.0194 76.0027H59.7198ZM59.4041 88.383C59.4041 87.2114 59.7592 86.235 60.4695 85.4539C61.206 84.6468 62.2845 84.2432 63.705 84.2432C65.1255 84.2432 66.204 84.6468 66.9405 85.4539C67.677 86.235 68.0453 87.2114 68.0453 88.383C68.0453 89.5546 67.677 90.531 66.9405 91.3121C66.204 92.0672 65.1255 92.4447 63.705 92.4447C62.2845 92.4447 61.206 92.0672 60.4695 91.3121C59.7592 90.531 59.4041 89.5546 59.4041 88.383Z" fill="#E7E9E8"/>
</svg>
