<svg width="72" height="64" viewBox="0 0 72 64" fill="none" xmlns="http://www.w3.org/2000/svg">
<path d="M33.3923 1.52543L0.407866 59.4235C-0.751001 61.4577 0.697581 64 3.01531 64H68.9848C71.3025 64 72.7508 61.4574 71.5923 59.4235L38.6072 1.52543C37.4484 -0.508476 34.5512 -0.508476 33.3923 1.52543Z" fill="#2B69DD"/>
<path d="M36 39C34.2607 39 32.8246 37.61 32.7296 35.8344L32.0061 22.3127C31.8807 19.9698 33.7051 18 36 18C38.2949 18 40.1193 19.9701 39.9939 22.3127L39.2704 35.8344C39.1754 37.61 37.7393 39 36 39Z" fill="#FBAC00"/>
<path d="M36 55C38.2091 55 40 53.433 40 51.5C40 49.567 38.2091 48 36 48C33.7909 48 32 49.567 32 51.5C32 53.433 33.7909 55 36 55Z" fill="#FBAC00"/>
</svg>
