<svg width="176" height="176" viewBox="0 0 176 176" fill="none" xmlns="http://www.w3.org/2000/svg">
<path d="M142 47.5486V64.3748H121.959V47.5486C121.949 41.7322 126.42 37.0093 131.945 37H131.995C137.514 37 141.99 41.7053 142 47.5151V47.5486Z" fill="#2B69DD"/>
<path d="M59.888 37H131.945C126.42 37.0093 121.949 41.7322 121.958 47.5486V124.84C121.949 132.663 115.922 139 108.49 139H108.45C108.139 139 107.831 138.988 107.524 138.965C100.463 138.445 94.99 132.26 94.998 124.809V115.644H49.8672V115.517L50.3434 46.9211C50.3434 41.3962 54.6395 37 59.888 37ZM99.1557 70.5411V56.9823L84.9542 49.639L70.7554 56.9609V70.5411C70.7554 74.0155 72.8929 78.2715 75.6221 80.232L84.9542 86.9302L94.2864 80.232C97.0156 78.2715 99.1557 74.0155 99.1557 70.5411Z" fill="#87B645"/>
<path d="M107.524 138.965L107.522 139H47.4678C40.036 139 34.0088 132.663 34 124.84V115.644H94.998V124.809C94.9901 132.26 100.463 138.445 107.524 138.965Z" fill="#2B69DD"/>
<path d="M99.1557 56.982V70.5408C99.1557 74.0153 97.0155 78.2712 94.2864 80.2317L84.9542 86.9299L75.6221 80.2317C72.8929 78.2712 70.7554 74.0153 70.7554 70.5408V56.9607L84.9542 49.6387L99.1557 56.982Z" fill="#2B69DD"/>
<path d="M107.414 97.7425H64.0716C63.0742 97.7425 62.2656 96.8922 62.2656 95.8415C62.2656 94.7916 63.0742 93.9404 64.0716 93.9404H107.414C108.411 93.9404 109.22 94.7916 109.22 95.8415C109.22 96.8922 108.411 97.7425 107.414 97.7425Z" fill="#2B69DD"/>
<path d="M107.414 106.535H64.0716C63.0742 106.535 62.2656 105.684 62.2656 104.633C62.2656 103.584 63.0742 102.732 64.0716 102.732H107.414C108.411 102.732 109.22 103.584 109.22 104.633C109.22 105.684 108.411 106.535 107.414 106.535Z" fill="#2B69DD"/>
<path d="M83.18 73.968H83.1756C82.695 73.9662 82.2347 73.7638 81.8969 73.4046L78.2621 69.5403C77.8009 69.0595 77.6202 68.355 77.7895 67.694C77.9588 67.0341 78.4517 66.5207 79.0804 66.349C79.7092 66.1773 80.3767 66.375 80.8291 66.8651L83.187 69.3714L89.0889 63.1614C89.7944 62.4188 90.9381 62.4188 91.6426 63.1614C92.3481 63.904 92.3481 65.107 91.6426 65.8496L84.4577 73.4111C84.1182 73.7675 83.6588 73.968 83.18 73.968Z" fill="#FBAC00"/>
</svg>
