<svg width="176" height="176" viewBox="0 0 176 176" fill="none" xmlns="http://www.w3.org/2000/svg">
<path d="M85.3923 76.1841L52.4079 131.618C51.249 133.566 52.6976 136 55.0153 136H120.985C123.303 136 124.751 133.566 123.592 131.618L90.6072 76.1841C89.4484 74.2368 86.5512 74.2368 85.3923 76.1841Z" fill="#2B69DD"/>
<g filter="url(#filter0_d_119_464)">
<path d="M40.9531 63.4116L36.8461 48.9352C36.58 47.9977 35.3393 47.6838 34.6127 48.3701L23.3918 58.9676C22.6652 59.6538 22.9976 60.8256 23.9902 61.0768L39.3181 64.9557C40.3108 65.2069 41.2191 64.3491 40.9531 63.4116Z" fill="#2B69DD"/>
</g>
<path d="M87.9999 112.51C86.1583 112.51 84.6377 111.159 84.5372 109.431L83.7711 96.2796C83.6383 94.0009 85.57 92.085 87.9999 92.085C90.4299 92.085 92.3615 94.0011 92.2288 96.2796L91.4627 109.431C91.3622 111.159 89.8416 112.51 87.9999 112.51Z" fill="#FBAC00"/>
<path d="M87.9999 127.83C90.339 127.83 92.2352 126.229 92.2352 124.255C92.2352 122.281 90.339 120.681 87.9999 120.681C85.6609 120.681 83.7646 122.281 83.7646 124.255C83.7646 126.229 85.6609 127.83 87.9999 127.83Z" fill="#FBAC00"/>
<path d="M88.0003 40C74.8999 40 62.6103 43.4879 52 49.5L63.3984 69C70.6603 64.8989 79.0588 62.554 88 62.554C96.9412 62.554 105.34 64.8989 112.602 69L124 49.4486C113.39 43.4364 101.101 40 88.0003 40Z" fill="#FBAC00"/>
<path d="M27.1174 136C31.5032 136 35.0586 132.571 35.0586 128.34C35.0586 124.11 31.5032 120.681 27.1174 120.681C22.7317 120.681 19.1763 124.11 19.1763 128.34C19.1763 132.571 22.7317 136 27.1174 136Z" fill="#87B645"/>
<path d="M123.674 50.2129L112.353 68.7599C126.875 76.5933 136.821 91.1812 137.374 107.969C137.401 108.792 138.11 109.447 138.981 109.447H158.389C159.294 109.447 160.02 108.741 160 107.885C159.413 83.1829 144.94 61.7223 123.674 50.2129Z" fill="#FF0000"/>
<path d="M148.883 136C153.268 136 156.824 132.571 156.824 128.34C156.824 124.11 153.268 120.681 148.883 120.681C144.497 120.681 140.941 124.11 140.941 128.34C140.941 132.571 144.497 136 148.883 136Z" fill="#FF0000"/>
<path d="M52.3263 50.2129C48.0635 52.5199 44.0738 55.227 40.4142 58.2796L42.1491 64.4041C42.4237 65.3732 41.4861 66.2601 40.4615 66.0003L33.9866 64.3593C23.1185 76.0166 16.3958 91.2142 16.0004 107.889C15.9801 108.743 16.7079 109.447 17.6114 109.447H37.0196C37.8899 109.447 38.5987 108.792 38.6258 107.969C39.1792 91.1812 49.125 76.5933 63.647 68.7599L52.3263 50.2129Z" fill="#87B645"/>
<defs>
<filter id="filter0_d_119_464" x="12" y="37" width="48" height="47" filterUnits="userSpaceOnUse" color-interpolation-filters="sRGB">
<feFlood flood-opacity="0" result="BackgroundImageFix"/>
<feColorMatrix in="SourceAlpha" type="matrix" values="0 0 0 0 0 0 0 0 0 0 0 0 0 0 0 0 0 0 127 0" result="hardAlpha"/>
<feOffset dx="4" dy="4"/>
<feGaussianBlur stdDeviation="7.5"/>
<feColorMatrix type="matrix" values="0 0 0 0 0 0 0 0 0 0 0 0 0 0 0 0 0 0 0.25 0"/>
<feBlend mode="normal" in2="BackgroundImageFix" result="effect1_dropShadow_119_464"/>
<feBlend mode="normal" in="SourceGraphic" in2="effect1_dropShadow_119_464" result="shape"/>
</filter>
</defs>
</svg>
