<svg width="176" height="128" viewBox="0 0 176 128" fill="none" xmlns="http://www.w3.org/2000/svg">
<path fill-rule="evenodd" clip-rule="evenodd" d="M64.2789 27.5385C72.9451 11.1905 90.4828 0 110.724 0C137.282 0 159.209 19.27 162.511 44.2087H164.893C188.701 44.2087 208 62.966 208 86.1043C208 109.243 188.7 128 164.893 128H50.4432C22.5842 128 0 106.05 0 78.9739V74.6956C0 47.6192 22.5842 25.6696 50.4432 25.6696C55.2344 25.6696 59.8772 26.3206 64.2789 27.5385Z" fill="#E1E1E1"/>
<path fill-rule="evenodd" clip-rule="evenodd" d="M136 69.5C136 83.0311 125.031 94 111.5 94C97.9689 94 87 83.0311 87 69.5C87 55.9689 97.9689 45 111.5 45C125.031 45 136 55.9689 136 69.5Z" fill="#E7E9E8"/>
<path fill-rule="evenodd" clip-rule="evenodd" d="M121.896 62.9306C121.676 59.5444 118.662 58.5117 114.804 58.3328L114.977 53.627L111.925 53.7384L111.747 58.3522L109.37 58.4639L109.529 53.8398L106.542 53.9487L106.368 58.6544L100.339 58.9186L100.288 61.9759C100.288 61.9759 102.497 61.8484 102.457 61.8905C103.283 61.7825 104.009 62.2995 104.124 63.0771L103.747 76.006C103.721 76.2768 103.585 76.5346 103.368 76.7226C103.151 76.9105 102.871 77.0131 102.591 77.0078L100.263 77.1214L99.5454 80.5798L103.446 80.4365L105.588 80.3742L105.399 85.0842L108.383 84.9607L108.556 80.2549L110.987 80.237L110.814 84.9428L113.816 84.8296L113.989 80.0465C119.036 79.5872 122.598 78.233 123.199 73.6732C123.687 69.9986 122.013 68.4105 119.129 67.8853C121.07 66.9459 122.206 64.912 121.896 62.9306ZM117.351 73.4891C117.221 77.0188 110.933 76.7891 108.952 76.9362L109.179 70.7436C111.117 70.6236 117.414 69.809 117.29 73.5059L117.351 73.4891ZM115.964 64.4239C115.858 67.6328 110.607 67.436 108.952 67.5237L109.091 61.8634C110.769 61.8005 116.026 61.0891 115.903 64.4408L115.964 64.4239Z" fill="#E1E1E1"/>
</svg>
