<svg width="32" height="33" viewBox="0 0 32 33" fill="none" xmlns="http://www.w3.org/2000/svg">
<path fill-rule="evenodd" clip-rule="evenodd" d="M31.4242 12.3625C33.4768 20.9122 28.2099 29.5069 19.6602 31.5596C11.1104 33.6122 2.51573 28.3453 0.463125 19.7956C-1.58948 11.2458 3.67736 2.65113 12.2271 0.59852C20.7768 -1.45409 29.3715 3.81276 31.4242 12.3625Z" fill="#FFC246"/>
<path fill-rule="evenodd" clip-rule="evenodd" d="M22.361 12.1049C22.159 9.85373 20.2378 9.07194 17.7996 8.82862L17.8216 5.71575L15.8974 5.69085L15.871 8.74262L14.3727 8.73978L14.387 5.68055L12.504 5.65613L12.482 8.76899L8.68188 8.74905L8.7063 10.7735C8.7063 10.7735 10.0982 10.7604 10.0738 10.787C10.5931 10.7421 11.0609 11.1082 11.1475 11.6272L11.1499 20.1829C11.1385 20.3615 11.0572 20.5279 10.9238 20.6455C10.7903 20.763 10.6158 20.822 10.4387 20.8094L8.97184 20.8094L8.58305 23.078L11.0421 23.1092L12.3926 23.1371L12.3609 26.2523L14.2416 26.2669L14.2636 23.1541L15.7977 23.2208L15.7757 26.3337L17.6685 26.3558L17.6884 23.1916C20.8652 23.0505 23.0879 22.2682 23.3827 19.266C23.6225 16.8466 22.5362 15.7401 20.707 15.2988C21.9143 14.7391 22.5933 13.4279 22.361 12.1049ZM19.6798 18.8394C19.6631 21.2052 15.6378 20.8457 14.374 20.8797L14.4034 16.7293C15.6404 16.712 19.6512 16.3706 19.641 18.8487L19.6798 18.8394ZM18.8333 12.9207C18.8254 15.0668 15.4702 14.764 14.4148 14.7687L14.398 10.9815C15.4678 10.994 18.8103 10.6887 18.7945 12.93L18.8333 12.9207Z" fill="white"/>
</svg>
