<svg width="32" height="32" viewBox="0 0 32 32" fill="none" xmlns="http://www.w3.org/2000/svg">
<g opacity="0.6">
<path fill-rule="evenodd" clip-rule="evenodd" d="M16 32C7.16336 32 0 24.8366 0 16C0 7.16336 7.16336 0 16 0C24.8366 0 32 7.16336 32 16C32 24.8366 24.8366 32 16 32Z" fill="#1786C4"/>
<path fill-rule="evenodd" clip-rule="evenodd" d="M27.158 6.40002H23.9182L18.7976 11.6452C17.2523 13.2281 14.7469 13.2281 13.2016 11.6452L8.08109 6.40002H4.84129L11.5817 13.3045C14.0217 15.8038 17.9776 15.8038 20.4175 13.3045L27.158 6.40002ZM4.80005 25.6H8.03986L13.202 20.3122C14.7473 18.7293 17.2527 18.7293 18.798 20.3122L23.9602 25.6H27.2L20.418 18.6529C17.978 16.1536 14.0221 16.1536 11.5821 18.6529L4.80005 25.6Z" fill="white"/>
</g>
</svg>
