<svg width="104" height="104" viewBox="0 0 104 104" fill="none" xmlns="http://www.w3.org/2000/svg">
<g opacity="0.6">
<path fill-rule="evenodd" clip-rule="evenodd" d="M103.559 52.2569C103.559 80.8331 80.3937 103.998 51.8175 103.998C23.2413 103.998 0.0761719 80.8331 0.0761719 52.2569C0.0761719 23.6807 23.2413 0.515625 51.8175 0.515625C80.3937 0.515625 103.559 23.6807 103.559 52.2569Z" fill="#FFC246"/>
<path fill-rule="evenodd" clip-rule="evenodd" d="M74.9777 45.1912C76.0474 37.924 70.569 33.9958 63.0484 31.3769L65.4797 21.5563L59.4178 20.0178L57.019 29.642L52.2862 28.4962L54.6526 18.8393L48.7203 17.3335L46.2891 27.1541L34.295 24.2079L32.8363 30.624C32.8363 30.624 37.2449 31.6388 37.1477 31.7043C38.8227 31.9565 40.0232 33.4683 39.9031 35.1742L33.4198 62.2136C33.2482 62.7695 32.8648 63.2337 32.354 63.5039C31.8432 63.7741 31.247 63.828 30.6968 63.6539L26.0612 62.5409L23.1113 69.4153L30.8589 71.3795L35.1054 72.4925L32.6418 82.313L38.574 83.7861L41.0052 73.9655L45.8029 75.3404L43.3716 85.161L49.3363 86.6668L51.7999 76.6826C61.9463 78.6467 69.5641 77.861 72.7734 68.597C75.3667 61.1333 72.7734 56.8123 67.3274 54.0298C71.5676 53.1769 74.708 49.5487 74.9777 45.1912ZM61.3951 64.4396C59.5474 71.9032 47.0994 67.7131 43.0798 66.862L46.3215 53.7679C50.2438 54.6517 63.178 56.6158 61.2654 64.4396H61.3951ZM63.2109 45.093C61.5577 51.8692 51.1844 48.3665 47.8455 47.5809L50.6657 35.5998C54.037 36.4509 64.8317 38.0222 63.0812 45.093H63.2109Z" fill="white"/>
</g>
</svg>
