<svg width="56" height="56" viewBox="0 0 56 56" fill="none" xmlns="http://www.w3.org/2000/svg">
<g opacity="0.6">
<path fill-rule="evenodd" clip-rule="evenodd" d="M55.7214 27.8607C55.7214 43.2479 43.2479 55.7214 27.8607 55.7214C12.4735 55.7214 0 43.2479 0 27.8607C0 12.4735 12.4735 0 27.8607 0C43.2479 0 55.7214 12.4735 55.7214 27.8607Z" fill="#5D8BAD"/>
<path fill-rule="evenodd" clip-rule="evenodd" d="M26.7597 11.2447L26.7655 11.2445C27.1848 11.226 27.7336 11.2019 28.1491 11.2002C29.6209 11.2061 30.3895 11.7822 30.0888 12.9119C29.7183 14.2986 27.8257 16.1808 25.2838 17.8673C24.8033 18.0958 24.3077 17.4474 24.4102 17.1719C24.4307 17.1317 24.4593 17.0963 24.4942 17.0677C26.7144 15.5954 28.3667 13.9525 28.6943 12.7414C28.9811 11.644 28.1184 11.1492 26.5433 11.2629L26.7597 11.2447ZM26.38 11.2766L26.5433 11.2629C26.4897 11.2668 26.4353 11.2713 26.38 11.2766ZM36.2563 15.0713C36.541 14.0088 36.1857 13.2764 35.3322 12.88C35.058 12.7488 34.7188 12.6059 34.3981 12.4707L34.398 12.4707L34.3979 12.4707L34.3978 12.4706C34.3079 12.4327 34.2195 12.3955 34.1344 12.3593C34.0688 12.3307 34.0008 12.3021 33.9286 12.2753L34.1344 12.3593C34.9408 12.7322 35.2768 13.4217 35.0097 14.4237C34.2125 17.4205 28.3247 22.0685 21.8641 24.8065C20.7401 25.2898 19.5884 25.7057 18.415 26.0521C18.3134 26.0884 18.2254 26.1549 18.1629 26.2428C17.9042 26.6123 18.005 27.5077 18.6241 27.4186C19.8709 27.052 21.0948 26.6114 22.2892 26.0991C29.1564 23.1914 35.4078 18.2553 36.2563 15.0713ZM42.7639 19.9603L42.9705 20.3551C43.0968 20.7009 43.143 20.8273 43.161 20.9576C43.1713 21.0327 43.1723 21.1091 43.1738 21.2294C43.1715 21.2513 43.1617 21.2718 43.1461 21.2874C42.9588 21.2244 42.5051 20.3635 42.4623 19.9864C42.4651 19.6702 42.3895 19.3582 42.2422 19.0784L42.7639 19.9603ZM42.1759 18.9667L42.2422 19.0784C42.2212 19.0398 42.1994 19.0028 42.1759 18.9667ZM44.2718 23.7592C44.3692 24.1329 44.3558 24.5688 44.2239 25.0669C43.3839 28.2039 38.0447 32.804 31.5781 36.1981C30.8557 36.4996 30.413 35.9545 30.5861 35.4892C30.6565 35.314 30.7873 35.1698 30.9548 35.0827C37.5297 31.6324 42.9605 26.9558 43.8072 23.7667C43.9487 23.2362 43.9565 22.7753 43.842 22.3841L43.9009 22.563C44.0297 22.9542 44.1767 23.4002 44.2718 23.7592ZM43.8072 22.2776L43.842 22.3841C43.8315 22.348 43.8199 22.3125 43.8072 22.2776ZM15.1943 17.5994C15.1783 17.6596 15.1662 17.7207 15.1582 17.7825C15.1235 17.9836 15.1694 18.1902 15.2858 18.3578C15.805 19.0642 17.753 18.9021 20.2806 17.8354C21.0759 17.4952 21.8481 17.1036 22.5924 16.6629C22.7528 16.5243 22.6386 16.3101 22.5848 16.2303C22.5311 16.1506 22.2656 15.8482 22.0371 15.9322C21.4456 16.2809 20.8319 16.5906 20.2 16.8594C18.1923 17.7119 16.6425 17.8413 16.2292 17.2794C16.1183 17.1282 16.0898 16.9283 16.157 16.6763C16.2591 16.3586 16.4236 16.0645 16.6408 15.8112C17.0182 15.3593 17.4451 14.9511 17.9135 14.5942C19.0982 13.7398 20.3745 13.02 21.7188 12.4483C21.8876 12.3762 22.0509 12.3152 22.2137 12.2544L22.2138 12.2543C22.2616 12.2365 22.3093 12.2186 22.3572 12.2005C24.3523 11.5479 25.6585 11.7487 25.3872 12.7658C25.304 13.0807 25.0797 13.4343 24.7437 13.8366C24.8865 13.9836 25.6635 14.1634 26.0037 13.9954C26.4179 13.5208 26.6976 13.0723 26.8026 12.6809C27.1134 11.5126 25.7753 11.2002 23.6324 11.7747C23.4656 11.8196 23.37 11.8483 23.2536 11.8833L23.2536 11.8833L23.2535 11.8833L23.2533 11.8834C23.2021 11.8988 23.1468 11.9154 23.0796 11.9351C22.8595 11.9998 22.7856 12.0241 22.5428 12.109C22.3001 12.1938 22.1699 12.2417 22.0019 12.3063C21.8329 12.3693 21.7154 12.4179 21.4886 12.5116L21.4508 12.5272C21.2958 12.5935 21.2193 12.6278 21.0981 12.6823L21.0224 12.7162C20.8519 12.7926 20.7813 12.8271 20.6133 12.9094C20.497 12.9664 20.4318 13 20.3503 13.0421C20.3141 13.0608 20.2746 13.0811 20.226 13.1059C20.0681 13.1866 20.0076 13.2193 19.848 13.3083C19.7421 13.3674 19.6809 13.4032 19.6076 13.4461L19.6075 13.4462L19.6075 13.4462L19.6072 13.4464C19.5701 13.468 19.5299 13.4916 19.4793 13.5208C19.3281 13.6082 19.2735 13.6409 19.113 13.7417C19.0018 13.8116 18.9418 13.8508 18.8637 13.9019L18.8637 13.9019C18.8291 13.9245 18.791 13.9494 18.7434 13.9803C18.5959 14.0759 18.537 14.1171 18.3957 14.2158L18.3721 14.2322C18.2367 14.3271 18.1689 14.3769 18.069 14.4505L17.9807 14.5153C17.8597 14.6038 17.7946 14.6546 17.6944 14.7326L17.6943 14.7327L17.6943 14.7327L17.6943 14.7327L17.5926 14.8118C17.4411 14.9329 17.3663 14.9952 17.2557 15.0874L17.165 15.1628C16.9961 15.3031 16.9205 15.3669 16.7391 15.5349C16.4016 15.8345 16.089 16.1609 15.8041 16.5109C15.6011 16.7571 15.4301 17.028 15.2951 17.3172C15.2541 17.4085 15.2204 17.5028 15.1943 17.5994ZM13.2933 20.2711C13.3044 20.1818 13.3218 20.0934 13.3454 20.0065C13.3833 19.8672 13.4319 19.731 13.4907 19.5992C13.5797 19.4161 13.7133 19.1792 13.8158 19.0037C13.8931 18.8713 13.9938 18.7288 14.0971 18.5828L14.0971 18.5828L14.0971 18.5828C14.1307 18.5352 14.1646 18.4873 14.198 18.4393L14.2365 18.3838C14.3608 18.2051 14.4886 18.0212 14.6012 17.869L14.8322 17.5691L14.8364 17.5641C14.7114 17.7261 14.5996 17.8926 14.4874 18.0597L14.4874 18.0597L14.4874 18.0597L14.4874 18.0597L14.4874 18.0597L14.4874 18.0597L14.4874 18.0597L14.4874 18.0597L14.4874 18.0597L14.4874 18.0597L14.4874 18.0597L14.4874 18.0597L14.4349 18.1377C14.2762 18.385 14.1529 18.6533 14.0686 18.9348C13.9628 19.3321 14.0082 19.6504 14.1846 19.8898C14.7272 20.6297 16.5148 20.6138 18.9282 19.8133C19.2785 19.7629 19.2449 20.4071 19.244 20.4139C19.2138 20.7649 19.1676 21.2949 16.0981 21.6737C15.2178 21.7812 14.051 21.7728 13.4941 21.1211L13.4806 21.1026C13.4047 20.9955 13.35 20.8749 13.3193 20.7473C13.3193 20.7426 13.3175 20.7382 13.3156 20.7335C13.3141 20.7299 13.3125 20.7262 13.3118 20.7221C13.2887 20.5729 13.2825 20.4216 13.2933 20.2711ZM12.0702 22.7068C12.0408 22.8172 12.0187 22.9294 12.0038 23.0427C11.9518 23.4627 12.0349 23.8121 12.2382 24.0893C13.1858 25.3802 16.7449 25.0837 21.3651 23.1267C27.2159 20.6474 32.5492 16.4353 33.2733 13.7199C33.5346 12.7406 33.1607 12.0922 32.2485 11.7562L32.2202 11.7484C32.0616 11.7045 31.8926 11.6577 31.6017 11.5975C31.2088 11.5147 31.1902 11.516 31.0411 11.5259L31.0388 11.5261C31.8243 11.815 32.1653 12.4096 31.9267 13.305C31.2648 15.7869 26.3893 19.6378 21.0375 21.9055C16.8197 23.6928 13.5646 23.9666 12.6977 22.7841C12.465 22.4666 12.4045 22.0441 12.5448 21.5175C12.5778 21.395 12.6185 21.2746 12.6666 21.1572C12.696 21.0875 12.7263 21.0186 12.7548 20.9548C12.7221 21.0228 12.6935 21.0908 12.6666 21.1572C12.517 21.5033 12.3596 21.9087 12.2245 22.2564L12.2245 22.2565L12.2245 22.2565L12.2244 22.2566L12.1542 22.4372C12.1217 22.5279 12.0937 22.6178 12.0702 22.7068ZM11.3242 25.9992L11.4594 25.0913L11.5778 24.4874C11.5879 24.4412 11.5997 24.3942 11.6123 24.3463C11.5922 24.4387 11.5782 24.5324 11.5641 24.6261C11.5552 24.6855 11.5463 24.745 11.5358 24.804C11.4997 25.2298 11.5871 25.5893 11.7971 25.8749C11.9588 26.0892 12.1693 26.262 12.4111 26.3788C12.6228 26.5678 12.5111 27.2968 12.5094 27.3027C12.4716 27.5253 12.396 27.7865 12.2507 27.7638C11.9917 27.6337 11.7689 27.4415 11.6022 27.2044V27.2322C11.5827 27.2056 11.5671 27.1767 11.5514 27.1478C11.5428 27.1318 11.5342 27.1158 11.5249 27.1003C11.5204 27.0927 11.5159 27.0852 11.5113 27.0777L11.5113 27.0777C11.5014 27.0614 11.4915 27.0453 11.4829 27.0281C11.4764 27.015 11.4703 27.0058 11.4647 26.9973C11.4595 26.9893 11.4546 26.982 11.4502 26.9726C11.3994 26.8561 11.3636 26.7336 11.3435 26.6081C11.3398 26.5897 11.3378 26.5706 11.3357 26.5515C11.3345 26.5401 11.3333 26.5287 11.3317 26.5174C11.3223 26.4643 11.3156 26.4108 11.3115 26.357C11.3055 26.2362 11.3098 26.1151 11.3242 25.995V25.9992ZM11.3687 29.9924C11.3745 30.0132 11.3803 30.0339 11.388 30.0534V30.0492L11.3951 30.0673L11.3951 30.0674C11.3991 30.0779 11.403 30.0883 11.4073 30.0979C11.4544 30.2116 11.5145 30.3196 11.5863 30.4196C11.5858 30.4126 11.5858 30.4056 11.5863 30.3986C12.8018 32.0952 17.4337 31.7206 23.4533 29.174C31.069 25.9429 38.0059 20.4643 38.9451 16.935C39.203 15.97 38.9854 15.2502 38.3797 14.7798L37.7077 14.2759L37.1331 13.8879C37.4313 14.1071 37.9841 14.5144 37.9354 15.4778C37.6615 20.9984 16.2803 34.1529 11.5132 29.0497C11.322 28.7837 11.214 28.4678 11.2014 28.142C11.2009 28.1064 11.2007 28.0716 11.2007 28.0376C11.1998 28.0725 11.2001 28.1073 11.2014 28.142C11.2058 28.4573 11.2282 28.829 11.2488 29.1713L11.2489 29.1713L11.2489 29.1713L11.2489 29.1714C11.2546 29.2673 11.2603 29.3609 11.2654 29.4503V29.4671C11.2712 29.4999 11.2712 29.536 11.2712 29.5679C11.2754 29.5755 11.2754 29.5814 11.2754 29.5889C11.2771 29.6018 11.2802 29.615 11.2834 29.6288C11.2867 29.6429 11.2901 29.6576 11.2922 29.6729C11.3061 29.7678 11.3277 29.8613 11.3569 29.9526C11.3612 29.9657 11.3649 29.9791 11.3687 29.9924ZM12.255 33.6028L12.2415 33.5851L12.2365 33.5784L12.2306 33.5709L12.2205 33.5566C12.1042 33.4183 12.0227 33.2541 11.9828 33.0778C11.9507 32.9601 11.9151 32.8326 11.8782 32.7006L11.8781 32.7003L11.8781 32.7002L11.8781 32.7002C11.7796 32.3474 11.6719 31.9619 11.5969 31.6409C11.6499 31.8537 11.7435 32.0544 11.8728 32.2321L11.8921 32.2581C13.2042 33.974 18.005 33.565 24.2094 30.9378C32.1258 27.5782 39.3366 21.8845 40.3161 18.2133C40.5387 17.3734 40.4186 16.7183 40.0078 16.2387L40.1606 16.4031L40.1641 16.4069L40.1666 16.4096L40.1675 16.4105C40.4308 16.6933 40.7214 17.0055 40.9419 17.2676C41.3535 17.7564 41.4719 18.425 41.246 19.2716C40.2472 23.0167 32.8919 28.8263 24.8167 32.2472C18.4787 34.9349 13.5839 35.3481 12.2525 33.591L12.255 33.6028ZM39.9019 16.1254L40.0078 16.2387C39.9742 16.2001 39.9397 16.1615 39.9019 16.1254ZM11.583 31.5803C11.5872 31.6006 11.5919 31.6208 11.5969 31.6409L11.583 31.5803ZM13.2916 36.0922C13.5016 36.5458 13.5713 36.5962 13.5713 36.5962V36.592C13.6698 36.7052 13.7759 36.8115 13.8889 36.9103C15.5689 38.3289 20.3142 37.8065 26.3675 35.2523C31.2262 33.1938 35.8287 30.2844 38.9863 27.4631L38.9865 27.4629C39.1142 27.284 39.3072 27.0136 39.1434 26.5695C39.0678 26.3646 38.8318 25.9186 38.2824 26.2083C35.1264 29.0245 30.5323 31.9289 25.682 33.9841C19.223 36.7188 14.24 37.1337 12.9136 35.3279C13.0245 35.5687 13.1424 35.8081 13.2672 36.046L13.2916 36.0922ZM15.1303 38.7975C14.9548 38.5909 14.7817 38.3818 14.6398 38.1979C14.6305 38.1869 14.6221 38.1752 14.6137 38.1634C14.6204 38.1722 14.6276 38.1804 14.6347 38.1886C14.6419 38.1968 14.649 38.205 14.6557 38.2138C15.4437 39.2074 17.3934 39.4913 20.1159 39.0428C20.6653 39.0134 21.0265 39.472 21.0929 39.5963C21.1693 39.7407 21.2491 39.9969 20.9156 40.0943C18.346 40.5143 16.4719 40.2783 15.6419 39.3922C15.4848 39.2141 15.3042 39.0008 15.1303 38.7933V38.7975ZM17.215 40.8911C17.1782 40.8641 17.1427 40.8362 17.1085 40.8074V40.8032C17.1428 40.8319 17.1784 40.8613 17.215 40.8911ZM17.215 40.8911C18.7918 42.0491 22.7931 41.6412 27.9054 39.6173C28.6759 39.3806 28.9332 39.8953 28.9361 39.9012L28.9361 39.9012C28.9789 40.0045 29.0336 40.2682 28.6001 40.4832C23.6952 42.4251 19.8487 42.8232 18.3056 41.7338C18.2013 41.6533 18.0867 41.5662 17.9681 41.476L17.9679 41.4758L17.9678 41.4758L17.9676 41.4756C17.7148 41.2834 17.4436 41.0772 17.215 40.8911ZM39.8516 39.5543C39.7438 39.7282 39.6105 39.8848 39.4559 40.0188C37.854 41.3072 35.7413 42.5821 33.5279 43.5203C31.6622 44.3106 30.0308 44.7323 28.8237 44.7936C28.3911 44.802 27.8409 44.8028 27.3679 44.7936C28.7599 44.7936 30.7423 44.3157 33.039 43.3431C35.5473 42.2798 37.9414 40.8351 39.7592 39.3754C39.8029 39.3459 39.8496 39.3211 39.8986 39.3015L39.9347 39.3678C39.9119 39.4307 39.8841 39.4916 39.8516 39.5501V39.5543ZM27.0773 44.7869C27.1705 44.7936 27.268 44.7936 27.3679 44.7936L27.0773 44.7869ZM24.9476 44.5265C29.5283 45.2622 41.0341 39.5291 43.5416 34.4057C43.692 34.0657 43.838 33.6249 43.9683 33.2315L43.9686 33.2306L43.9712 33.2227C43.9914 33.1618 44.0112 33.1021 44.0305 33.0441C44.0497 32.9913 44.0673 32.939 44.0834 32.8872C44.0662 32.9377 44.0485 32.9901 44.0305 33.0441C43.0081 35.8601 37.6455 40.025 31.7779 42.5116C28.154 44.0468 25.1574 44.5952 23.4912 44.1879C23.4489 44.177 23.4076 44.1661 23.3675 44.1553C23.4079 44.1668 23.4491 44.1777 23.4912 44.1879C23.9322 44.3023 24.4808 44.4234 24.9105 44.5183L24.9107 44.5183L24.9476 44.5265ZM44.6907 29.9464L44.6906 29.9465C44.6528 30.2577 44.6121 30.5921 44.5658 30.8605C44.5515 30.9445 44.533 31.0235 44.5104 31.1083C43.688 34.1907 37.6339 38.9723 30.9859 41.7884C26.664 43.6202 23.1544 44.1695 21.4567 43.48C21.3881 43.4482 21.3159 43.4149 21.2413 43.3804L21.2406 43.3801L21.2404 43.38C20.8577 43.2034 20.4112 42.9972 20.0698 42.8181C25.9021 45.2471 43.9013 35.4119 44.7607 29.326L44.7405 29.5469C44.7243 29.6698 44.7078 29.8057 44.6907 29.9464ZM38.6199 34.9349C41.8616 32.542 44.1842 30.0332 44.6967 28.1115H44.6975C44.7722 27.8452 44.8065 27.5691 44.7991 27.2926L44.7681 26.7517L44.6691 25.7952C44.7026 26.1353 44.6709 26.4788 44.5757 26.8072C44.0456 28.796 41.6432 31.3947 38.2831 33.8724C38.1113 34.0111 37.9914 34.2038 37.9428 34.4192C37.8639 34.7929 38.0949 35.2565 38.6199 34.9349Z" fill="white"/>
</g>
</svg>
