<svg width="83" height="83" viewBox="0 0 83 83" fill="none" xmlns="http://www.w3.org/2000/svg">
<g opacity="0.6">
<path fill-rule="evenodd" clip-rule="evenodd" d="M52.8101 71.2814C36.3107 77.6149 17.8013 69.374 11.4678 52.8746C5.13424 36.3751 13.3751 17.8658 29.8746 11.5322C46.374 5.19869 64.8834 13.4396 71.2169 29.939C77.5505 46.4385 69.3096 64.9478 52.8101 71.2814Z" fill="#1786C4"/>
<path fill-rule="evenodd" clip-rule="evenodd" d="M55.2957 15.4845L49.2464 17.8066L43.445 31.2702C41.694 35.3334 37.0161 37.1291 32.9963 35.2811L19.676 29.1576L13.6268 31.4797L31.1609 39.5404C37.5081 42.4582 44.8945 39.6229 47.6588 33.2074L55.2957 15.4845ZM27.3111 67.3588L33.3604 65.0367L39.209 51.4635C40.9598 47.4004 45.6376 45.6047 49.6576 47.4527L63.0862 53.626L69.1355 51.3039L51.4931 43.1934C45.1459 40.2756 37.7595 43.111 34.9951 49.5264L27.3111 67.3588Z" fill="white"/>
</g>
</svg>
