<svg width="1920" height="400" viewBox="0 0 1920 400" fill="none" xmlns="http://www.w3.org/2000/svg">
<g clip-path="url(#clip0_1_2)">
<path d="M9.45837 13.8002L121.458 270.8M120.676 269.619L227.676 178.619M227.859 178.52L343.859 144.52M343.645 143.648L452.645 33.6481M452.884 33.5137L565.884 6.51369M566.288 6.59141L678.288 85.5914M678.181 84.5341L791.181 128.534M790.868 127.518L903.868 96.5178M902.961 95.5015L1016.96 86.5015M1017.13 86.5181L1129.13 117.518M1128.87 116.518L1241.87 85.5178M1241.23 85.5583L1356.23 146.558M1356.07 145.505L1464.07 161.505M1463.76 160.563L1578.76 96.5631M1578.99 96.5001L1694.99 94.5001M1693.95 93.5021L1803.95 83.5021M1802.74 82.5706L1920.5 14" stroke="#FF0000" stroke-width="3"/>
<path d="M15 15C15 18.2498 12.156 21 8.5 21C4.84405 21 2 18.2498 2 15C2 11.7502 4.84405 9 8.5 9C12.156 9 15 11.7502 15 15Z" fill="white" stroke="#990505" stroke-width="2"/>
<path d="M127 271C127 274.314 124.314 277 121 277C117.686 277 115 274.314 115 271C115 267.686 117.686 265 121 265C124.314 265 127 267.686 127 271Z" fill="white" stroke="#990505" stroke-width="2"/>
<path d="M235 179.5C235 183.09 232.09 186 228.5 186C224.91 186 222 183.09 222 179.5C222 175.91 224.91 173 228.5 173C232.09 173 235 175.91 235 179.5Z" fill="white" stroke="#990505" stroke-width="2"/>
<path d="M460 34C460 37.866 456.866 41 453 41C449.134 41 446 37.866 446 34C446 30.134 449.134 27 453 27C456.866 27 460 30.134 460 34Z" fill="white" stroke="#990505" stroke-width="2"/>
<path d="M351 145.5C351 149.09 348.09 152 344.5 152C340.91 152 338 149.09 338 145.5C338 141.91 340.91 139 344.5 139C348.09 139 351 141.91 351 145.5Z" fill="white" stroke="#990505" stroke-width="2"/>
<path d="M571.945 7.04797C571.945 10.3375 569.112 13.0959 565.502 13.0959C561.891 13.0959 559.059 10.3375 559.059 7.04797C559.059 3.75845 561.891 1.00002 565.502 1.00002C569.112 1.00002 571.945 3.75845 571.945 7.04797Z" fill="white" stroke="#990505" stroke-width="2"/>
<path d="M684.764 86.3376C684.764 89.6271 681.932 92.3856 678.321 92.3856C674.711 92.3856 671.878 89.6271 671.878 86.3376C671.878 83.0481 674.711 80.2897 678.321 80.2897C681.932 80.2897 684.764 83.0481 684.764 86.3376Z" fill="white" stroke="#990505" stroke-width="2"/>
<path d="M797.644 128.625C797.644 131.915 794.811 134.673 791.201 134.673C787.591 134.673 784.758 131.915 784.758 128.625C784.758 125.336 787.591 122.577 791.201 122.577C794.811 122.577 797.644 125.336 797.644 128.625Z" fill="white" stroke="#990505" stroke-width="2"/>
<path d="M910.577 97.3614C910.577 100.951 907.667 103.861 904.077 103.861C900.488 103.861 897.577 100.951 897.577 97.3614C897.577 93.7715 900.488 90.8614 904.077 90.8614C907.667 90.8614 910.577 93.7715 910.577 97.3614Z" fill="white" stroke="#990505" stroke-width="2"/>
<path d="M1024.38 87.2897C1024.38 91.1557 1021.24 94.2897 1017.38 94.2897C1013.51 94.2897 1010.38 91.1557 1010.38 87.2897C1010.38 83.4237 1013.51 80.2897 1017.38 80.2897C1021.24 80.2897 1024.38 83.4237 1024.38 87.2897Z" fill="white" stroke="#990505" stroke-width="2"/>
<path d="M1135 118C1135 121.314 1132.31 124 1129 124C1125.69 124 1123 121.314 1123 118C1123 114.686 1125.69 112 1129 112C1132.31 112 1135 114.686 1135 118Z" fill="white" stroke="#990505" stroke-width="2"/>
<path d="M1248 86C1248 89.3137 1245.31 92 1242 92C1238.69 92 1236 89.3137 1236 86C1236 82.6863 1238.69 80 1242 80C1245.31 80 1248 82.6863 1248 86Z" fill="white" stroke="#990505" stroke-width="2"/>
<path d="M1362 147C1362 150.314 1359.31 153 1356 153C1352.69 153 1350 150.314 1350 147C1350 143.686 1352.69 141 1356 141C1359.31 141 1362 143.686 1362 147Z" fill="white" stroke="#990505" stroke-width="2"/>
<path d="M1469 162.5C1469 165.538 1466.54 168 1463.5 168C1460.46 168 1458 165.538 1458 162.5C1458 159.462 1460.46 157 1463.5 157C1466.54 157 1469 159.462 1469 162.5Z" fill="white" stroke="#990505" stroke-width="2"/>
<path d="M1585 97C1585 100.314 1582.31 103 1579 103C1575.69 103 1573 100.314 1573 97C1573 93.6863 1575.69 91 1579 91C1582.31 91 1585 93.6863 1585 97Z" fill="white" stroke="#990505" stroke-width="2"/>
<path d="M1701 95C1701 98.3137 1698.31 101 1695 101C1691.69 101 1689 98.3137 1689 95C1689 91.6863 1691.69 89 1695 89C1698.31 89 1701 91.6863 1701 95Z" fill="white" stroke="#990505" stroke-width="2"/>
<path d="M1811 84C1811 87.866 1807.87 91 1804 91C1800.13 91 1797 87.866 1797 84C1797 80.134 1800.13 77 1804 77C1807.87 77 1811 80.134 1811 84Z" fill="white" stroke="#990505" stroke-width="2"/>
</g>
<defs>
<clipPath id="clip0_1_2">
<rect width="1920" height="400" fill="white"/>
</clipPath>
</defs>
</svg>
