<svg width="1917" height="407" viewBox="0 0 1917 407" fill="none" xmlns="http://www.w3.org/2000/svg">
<g clip-path="url(#clip0_2_34)">
<line x1="5.31479" y1="271.666" x2="116.315" y2="214.666" stroke="#75ACFE" stroke-width="3"/>
<line x1="117.437" y1="213.565" x2="232.437" y2="248.565" stroke="#75ACFE" stroke-width="3"/>
<line x1="230.007" y1="247.876" x2="341.007" y2="149.876" stroke="#75ACFE" stroke-width="3"/>
<line x1="339.869" y1="150.015" x2="454.869" y2="18.0147" stroke="#75ACFE" stroke-width="3"/>
<line x1="455.37" y1="17.5464" x2="565.37" y2="45.5464" stroke="#75ACFE" stroke-width="3"/>
<line x1="565.915" y1="44.8115" x2="678.915" y2="131.811" stroke="#75ACFE" stroke-width="3"/>
<line x1="678.671" y1="130.658" x2="792.671" y2="187.658" stroke="#75ACFE" stroke-width="3"/>
<line x1="791.329" y1="187.658" x2="903.329" y2="131.658" stroke="#75ACFE" stroke-width="3"/>
<line x1="902.677" y1="131.535" x2="1011.68" y2="107.535" stroke="#75ACFE" stroke-width="3"/>
<line x1="1011.02" y1="106.869" x2="1127.02" y2="5.86873" stroke="#75ACFE" stroke-width="3"/>
<line x1="1127.86" y1="5.77366" x2="1242.86" y2="86.7737" stroke="#75ACFE" stroke-width="3"/>
<line x1="1243.14" y1="86.0216" x2="1354.14" y2="215.022" stroke="#75ACFE" stroke-width="3"/>
<line x1="1353.52" y1="213.594" x2="1463.52" y2="254.594" stroke="#75ACFE" stroke-width="3"/>
<line x1="1462.93" y1="253.948" x2="1578.93" y2="135.948" stroke="#75ACFE" stroke-width="3"/>
<line x1="1577.9" y1="135.978" x2="1685.9" y2="19.9779" stroke="#75ACFE" stroke-width="3"/>
<line x1="1686.33" y1="19.5357" x2="1803.33" y2="45.5357" stroke="#75ACFE" stroke-width="3"/>
<line x1="1804.34" y1="46.3244" x2="1918.34" y2="272.324" stroke="#75ACFE" stroke-width="3"/>
<path d="M14 270.5C14 274.09 11.0899 277 7.5 277C3.91015 277 1 274.09 1 270.5C1 266.91 3.91015 264 7.5 264C11.0899 264 14 266.91 14 270.5Z" fill="white" stroke="#2B69DD" stroke-width="2"/>
<path d="M124 216.5C124 220.09 121.09 223 117.5 223C113.91 223 111 220.09 111 216.5C111 212.91 113.91 210 117.5 210C121.09 210 124 212.91 124 216.5Z" fill="white" stroke="#2B69DD" stroke-width="2"/>
<path d="M237 247.5C237 251.09 234.09 254 230.5 254C226.91 254 224 251.09 224 247.5C224 243.91 226.91 241 230.5 241C234.09 241 237 243.91 237 247.5Z" fill="white" stroke="#2B69DD" stroke-width="2"/>
<path d="M462 19.5C462 23.0899 459.09 26 455.5 26C451.91 26 449 23.0899 449 19.5C449 15.9101 451.91 13 455.5 13C459.09 13 462 15.9101 462 19.5Z" fill="white" stroke="#2B69DD" stroke-width="2"/>
<path d="M348 151.5C348 155.09 345.09 158 341.5 158C337.91 158 335 155.09 335 151.5C335 147.91 337.91 145 341.5 145C345.09 145 348 147.91 348 151.5Z" fill="white" stroke="#2B69DD" stroke-width="2"/>
<path d="M571.908 46.9519C571.908 50.5418 568.998 53.4519 565.408 53.4519C561.818 53.4519 558.908 50.5418 558.908 46.9519C558.908 43.3621 561.818 40.4519 565.408 40.4519C568.998 40.4519 571.908 43.3621 571.908 46.9519Z" fill="white" stroke="#2B69DD" stroke-width="2"/>
<path d="M684 130.5C684 134.09 681.09 137 677.5 137C673.91 137 671 134.09 671 130.5C671 126.91 673.91 124 677.5 124C681.09 124 684 126.91 684 130.5Z" fill="white" stroke="#2B69DD" stroke-width="2"/>
<path d="M798 187.5C798 191.09 795.09 194 791.5 194C787.91 194 785 191.09 785 187.5C785 183.91 787.91 181 791.5 181C795.09 181 798 183.91 798 187.5Z" fill="white" stroke="#2B69DD" stroke-width="2"/>
<path d="M910.43 133.029C910.43 136.619 907.52 139.529 903.93 139.529C900.34 139.529 897.43 136.619 897.43 133.029C897.43 129.439 900.34 126.529 903.93 126.529C907.52 126.529 910.43 129.439 910.43 133.029Z" fill="white" stroke="#2B69DD" stroke-width="2"/>
<path d="M1018 108.5C1018 112.09 1015.09 115 1011.5 115C1007.91 115 1005 112.09 1005 108.5C1005 104.91 1007.91 102 1011.5 102C1015.09 102 1018 104.91 1018 108.5Z" fill="white" stroke="#2B69DD" stroke-width="2"/>
<path d="M1134 7.5C1134 11.0899 1131.09 14 1127.5 14C1123.91 14 1121 11.0899 1121 7.5C1121 3.91015 1123.91 1 1127.5 1C1131.09 1 1134 3.91015 1134 7.5Z" fill="white" stroke="#2B69DD" stroke-width="2"/>
<path d="M1248.95 88.1973C1248.95 91.7871 1246.04 94.6973 1242.45 94.6973C1238.86 94.6973 1235.95 91.7871 1235.95 88.1973C1235.95 84.6074 1238.86 81.6973 1242.45 81.6973C1246.04 81.6973 1248.95 84.6074 1248.95 88.1973Z" fill="white" stroke="#2B69DD" stroke-width="2"/>
<path d="M1359.84 214.5C1359.84 218.09 1356.93 221 1353.34 221C1349.75 221 1346.84 218.09 1346.84 214.5C1346.84 210.91 1349.75 208 1353.34 208C1356.93 208 1359.84 210.91 1359.84 214.5Z" fill="white" stroke="#2B69DD" stroke-width="2"/>
<path d="M1469 253.5C1469 257.09 1466.09 260 1462.5 260C1458.91 260 1456 257.09 1456 253.5C1456 249.91 1458.91 247 1462.5 247C1466.09 247 1469 249.91 1469 253.5Z" fill="white" stroke="#2B69DD" stroke-width="2"/>
<path d="M1586 137.5C1586 141.09 1583.09 144 1579.5 144C1575.91 144 1573 141.09 1573 137.5C1573 133.91 1575.91 131 1579.5 131C1583.09 131 1586 133.91 1586 137.5Z" fill="white" stroke="#2B69DD" stroke-width="2"/>
<path d="M1693 21.5C1693 25.0899 1690.09 28 1686.5 28C1682.91 28 1680 25.0899 1680 21.5C1680 17.9101 1682.91 15 1686.5 15C1690.09 15 1693 17.9101 1693 21.5Z" fill="white" stroke="#2B69DD" stroke-width="2"/>
<path d="M1809.39 46.9519C1809.39 50.5418 1806.48 53.4519 1802.89 53.4519C1799.3 53.4519 1796.39 50.5418 1796.39 46.9519C1796.39 43.3621 1799.3 40.4519 1802.89 40.4519C1806.48 40.4519 1809.39 43.3621 1809.39 46.9519Z" fill="white" stroke="#2B69DD" stroke-width="2"/>
</g>
<defs>
<clipPath id="clip0_2_34">
<rect width="1917" height="407" fill="white"/>
</clipPath>
</defs>
</svg>
