<svg width="819" height="1101" viewBox="0 0 819 1101" fill="none" xmlns="http://www.w3.org/2000/svg">
<g clip-path="url(#clip0_127_525)">
<path opacity="0.8" fill-rule="evenodd" clip-rule="evenodd" d="M34.2296 261.153C-0.715279 538.737 169.77 695.132 260.399 742.766C539.257 889.331 372.574 1059.37 626.977 1082.47C690.708 1088.25 803.112 986.023 818.599 980.218C844.209 970.618 832.107 917.382 868.795 839.859C905.483 762.335 914.713 768.276 979.417 770.878C979.417 770.878 1042.67 749.482 1044.67 699.291C1046.67 649.098 1243.25 197.372 979.946 136.51C732.562 79.3279 677.143 94.3394 332.114 19.2611C232.13 -2.49525 69.1745 -16.4317 34.2296 261.153Z" fill="#F8DB73"/>
</g>
<defs>
<clipPath id="clip0_127_525">
<rect width="819" height="1101" fill="white"/>
</clipPath>
</defs>
</svg>
