<svg width="1540" height="1744" viewBox="0 0 1540 1744" fill="none" xmlns="http://www.w3.org/2000/svg">
<path opacity="0.6" fill-rule="evenodd" clip-rule="evenodd" d="M1489.22 1715.11C1489.22 1715.11 1544.32 1775.06 855.023 1720.09C524.92 1693.77 149.535 1438.08 192.733 1160.73C220.391 983.16 480.598 758.999 652.688 558.253C773.067 417.83 821.324 262.106 840.171 255.701C960.48 214.816 1176.45 306.808 1260.83 335.008C1392.77 379.106 1539.69 749.409 1539.69 749.409L1489.22 1715.11Z" fill="#1BAAD1"/>
<path fill-rule="evenodd" clip-rule="evenodd" d="M1300.46 1470.62C1300.46 1470.62 1355.56 1530.57 666.267 1475.6C336.163 1449.28 -39.2214 1193.59 3.97659 916.24C31.6341 738.669 291.841 514.508 463.932 313.763C584.31 173.339 632.568 17.6155 651.415 11.2108C771.727 -29.6745 987.7 62.318 1072.07 90.517C1204.01 134.616 1350.93 504.919 1350.93 504.919L1300.46 1470.62Z" fill="#F8DB73"/>
</svg>
