<svg width="1275" height="814" viewBox="0 0 1275 814" fill="none" xmlns="http://www.w3.org/2000/svg">
<path fill-rule="evenodd" clip-rule="evenodd" d="M1253.06 350.533C1203.85 450.525 843.684 456.183 802.777 424.064C782.152 407.87 741.702 351.714 725.203 279.631C705.514 193.609 733.451 125.764 774.8 95.857C850.797 40.89 1064.97 -26.55 1165.27 11.56C1265.56 49.67 1302.27 250.541 1253.06 350.533Z" fill="url(#paint0_linear_1_5)"/>
<path fill-rule="evenodd" clip-rule="evenodd" d="M947.63 652.361C860.41 829.568 222.097 839.62 149.602 782.705C113.05 754.008 41.367 654.494 12.132 526.751C-22.756 374.306 26.762 254.071 100.044 201.069C234.736 103.651 614.312 -15.88 792.058 51.65C969.8 119.18 1034.85 475.154 947.63 652.361Z" fill="url(#paint1_linear_1_5)"/>
<defs>
<linearGradient id="paint0_linear_1_5" x1="1215.12" y1="387.589" x2="1124.68" y2="230.949" gradientUnits="userSpaceOnUse">
<stop stop-color="#07BEAA"/>
<stop offset="1" stop-color="#22AE0F"/>
</linearGradient>
<linearGradient id="paint1_linear_1_5" x1="1055.71" y1="714.249" x2="507" y2="342" gradientUnits="userSpaceOnUse">
<stop offset="5.27872e-05" stop-color="#0043FF" stop-opacity="0.49"/>
<stop offset="1" stop-color="#39D3EC" stop-opacity="0.69"/>
</linearGradient>
</defs>
</svg>
